<svg width="1024" height="1024" viewBox="-2.4 -2.4 28.8 28.8" fill="none" xmlns="http://www.w3.org/2000/svg">
  <path
    d="M12 2C6.49 2 2 6.49 2 12C2 13.54 2.36 15.02 3.02 16.39V20.16C3.02 20.62 3.38 20.98 3.84 20.98H7.61C8.98 21.64 10.46 22 12 22C17.51 22 22 17.51 22 12C22 6.49 17.51 2 12 2Z"
    fill="#171717"
  />
  <path
    d="M7.7 8.8V15.2
       M15.3 8.8V15.2
       M7.7 12
       C9.15 11.2 10.75 11.2 12 12
       C13.25 12.8 14.05 12.8 15.3 12"
    fill="none"
    stroke="white"
    stroke-width="1.7"
    stroke-linecap="round"
    stroke-linejoin="round"
  />
  <path
    d="M17.25 6.15
       L17.58 7.17
       L18.6 7.5
       L17.58 7.83
       L17.25 8.85
       L16.92 7.83
       L15.9 7.5
       L16.92 7.17Z"
    fill="#1D4ED8"
  />
</svg>
